<mxfile host="Electron" modified="2024-09-03T12:42:10.508Z" agent="Mozilla/5.0 (Windows NT 10.0; Win64; x64) AppleWebKit/537.36 (KHTML, like Gecko) draw.io/24.5.3 Chrome/124.0.6367.207 Electron/30.0.6 Safari/537.36" etag="pKvM4-QTtSQSgfoKyGbC" version="24.5.3" type="device">
  <diagram name="Page-1" id="64scCPBlBniN26_XGfwt">
    <mxGraphModel dx="2284" dy="836" grid="1" gridSize="10" guides="1" tooltips="1" connect="1" arrows="1" fold="1" page="1" pageScale="1" pageWidth="850" pageHeight="1100" math="0" shadow="0">
      <root>
        <mxCell id="0" />
        <mxCell id="1" parent="0" />
        <mxCell id="LOwTzZgPYSI4zvSnTb8c-11" style="edgeStyle=orthogonalEdgeStyle;rounded=0;orthogonalLoop=1;jettySize=auto;html=1;" edge="1" parent="1" source="LOwTzZgPYSI4zvSnTb8c-3" target="LOwTzZgPYSI4zvSnTb8c-9">
          <mxGeometry relative="1" as="geometry" />
        </mxCell>
        <mxCell id="LOwTzZgPYSI4zvSnTb8c-14" style="edgeStyle=orthogonalEdgeStyle;rounded=0;orthogonalLoop=1;jettySize=auto;html=1;" edge="1" parent="1" source="LOwTzZgPYSI4zvSnTb8c-3" target="LOwTzZgPYSI4zvSnTb8c-13">
          <mxGeometry relative="1" as="geometry" />
        </mxCell>
        <mxCell id="LOwTzZgPYSI4zvSnTb8c-3" value="&lt;font color=&quot;#000000&quot;&gt;&lt;span style=&quot;font-size: 16px;&quot;&gt;&lt;b&gt;Abilities&lt;/b&gt;&lt;/span&gt;&lt;/font&gt;" style="rounded=1;whiteSpace=wrap;html=1;fillColor=#d0cee2;strokeColor=#56517e;" vertex="1" parent="1">
          <mxGeometry x="-60" y="520" width="120" height="60" as="geometry" />
        </mxCell>
        <mxCell id="LOwTzZgPYSI4zvSnTb8c-9" value="&lt;font color=&quot;#000000&quot;&gt;&lt;span style=&quot;font-size: 16px;&quot;&gt;&lt;b&gt;Traits&lt;/b&gt;&lt;/span&gt;&lt;/font&gt;&lt;br&gt;&lt;div&gt;&lt;hr&gt;&lt;div&gt;&lt;span style=&quot;font-size: 14px; color: rgb(0, 0, 0); background-color: initial;&quot;&gt;no instance&lt;/span&gt;&lt;br&gt;&lt;/div&gt;&lt;/div&gt;&lt;div&gt;&lt;span style=&quot;font-size: 14px; color: rgb(0, 0, 0); background-color: initial;&quot;&gt;reading all Abilities&lt;/span&gt;&lt;/div&gt;" style="rounded=1;whiteSpace=wrap;html=1;fillColor=#d0cee2;strokeColor=#56517e;" vertex="1" parent="1">
          <mxGeometry x="-330" y="505" width="160" height="90" as="geometry" />
        </mxCell>
        <mxCell id="LOwTzZgPYSI4zvSnTb8c-13" value="&lt;font color=&quot;#000000&quot;&gt;&lt;span style=&quot;font-size: 16px;&quot;&gt;&lt;b&gt;Abilities config&lt;/b&gt;&lt;/span&gt;&lt;/font&gt;" style="rounded=1;whiteSpace=wrap;html=1;fillColor=#d0cee2;strokeColor=#56517e;" vertex="1" parent="1">
          <mxGeometry x="-65" y="400" width="130" height="60" as="geometry" />
        </mxCell>
        <mxCell id="LOwTzZgPYSI4zvSnTb8c-15" value="&lt;font color=&quot;#000000&quot;&gt;&lt;span style=&quot;font-size: 16px;&quot;&gt;&lt;b&gt;Traits&lt;/b&gt;&lt;/span&gt;&lt;/font&gt;&lt;br&gt;&lt;div&gt;&lt;hr&gt;&lt;div&gt;&lt;span style=&quot;font-size: 14px; color: rgb(0, 0, 0); background-color: initial;&quot;&gt;no instance&lt;/span&gt;&lt;br&gt;&lt;/div&gt;&lt;/div&gt;&lt;div&gt;&lt;span style=&quot;font-size: 14px; color: rgb(0, 0, 0); background-color: initial;&quot;&gt;reading all Abilities&lt;/span&gt;&lt;/div&gt;" style="rounded=1;whiteSpace=wrap;html=1;fillColor=#d0cee2;strokeColor=#56517e;" vertex="1" parent="1">
          <mxGeometry x="-80" y="650" width="160" height="90" as="geometry" />
        </mxCell>
        <mxCell id="LOwTzZgPYSI4zvSnTb8c-16" value="&lt;font color=&quot;#000000&quot;&gt;&lt;span style=&quot;font-size: 16px;&quot;&gt;&lt;b&gt;Ability Attribute&lt;/b&gt;&lt;/span&gt;&lt;/font&gt;&lt;br&gt;&lt;div&gt;&lt;hr&gt;&lt;div&gt;&lt;span style=&quot;background-color: initial; color: rgb(0, 0, 0); font-size: 14px;&quot;&gt;Abilities&lt;/span&gt;&lt;br&gt;&lt;/div&gt;&lt;/div&gt;" style="rounded=1;whiteSpace=wrap;html=1;fillColor=#d0cee2;strokeColor=#56517e;" vertex="1" parent="1">
          <mxGeometry x="110" y="650" width="160" height="90" as="geometry" />
        </mxCell>
        <mxCell id="LOwTzZgPYSI4zvSnTb8c-17" value="Text" style="text;html=1;align=center;verticalAlign=middle;resizable=0;points=[];autosize=1;strokeColor=none;fillColor=none;" vertex="1" parent="1">
          <mxGeometry x="185" y="688" width="50" height="30" as="geometry" />
        </mxCell>
        <mxCell id="LOwTzZgPYSI4zvSnTb8c-19" value="&lt;font color=&quot;#000000&quot;&gt;&lt;span style=&quot;font-size: 16px;&quot;&gt;&lt;b&gt;Folder Reading&lt;/b&gt;&lt;/span&gt;&lt;/font&gt;&lt;div&gt;&lt;font color=&quot;#000000&quot;&gt;&lt;span style=&quot;font-size: 16px;&quot;&gt;&lt;b&gt;Required (IAbility)&lt;/b&gt;&lt;/span&gt;&lt;/font&gt;&lt;/div&gt;" style="rounded=1;whiteSpace=wrap;html=1;fillColor=#d0cee2;strokeColor=#56517e;" vertex="1" parent="1">
          <mxGeometry x="-335" y="820" width="170" height="60" as="geometry" />
        </mxCell>
      </root>
    </mxGraphModel>
  </diagram>
</mxfile>
